<svg width="18" height="14" viewBox="0 0 18 14" fill="none" xmlns="http://www.w3.org/2000/svg">
<path fill-rule="evenodd" clip-rule="evenodd" d="M17.5297 6.46991C17.6701 6.61054 17.749 6.80116 17.749 6.99991C17.749 7.19866 17.6701 7.38928 17.5297 7.52991L11.5297 13.5299C11.461 13.6036 11.3782 13.6627 11.2862 13.7037C11.1942 13.7447 11.0949 13.7667 10.9942 13.7685C10.8935 13.7703 10.7935 13.7518 10.7001 13.714C10.6067 13.6763 10.5219 13.6202 10.4506 13.5489C10.3794 13.4777 10.3233 13.3929 10.2856 13.2995C10.2478 13.2061 10.2293 13.1061 10.2311 13.0054C10.2329 12.9047 10.2549 12.8054 10.2959 12.7134C10.3369 12.6214 10.396 12.5386 10.4697 12.4699L15.1897 7.74991L0.999683 7.74991C0.800771 7.74991 0.610004 7.67089 0.469352 7.53024C0.328701 7.38959 0.249683 7.19882 0.249683 6.99991C0.249683 6.801 0.328701 6.61023 0.469352 6.46958C0.610004 6.32893 0.800771 6.24991 0.999683 6.24991L15.1897 6.24991L10.4697 1.52991C10.396 1.46125 10.3369 1.37845 10.2959 1.28645C10.2549 1.19445 10.2329 1.09513 10.2311 0.994432C10.2293 0.893729 10.2478 0.793699 10.2856 0.700311C10.3233 0.606923 10.3794 0.522089 10.4506 0.450871C10.5219 0.379652 10.6067 0.323507 10.7001 0.285786C10.7935 0.248065 10.8935 0.229541 10.9942 0.231318C11.0949 0.233094 11.1942 0.255136 11.2862 0.296128C11.3782 0.33712 11.461 0.396222 11.5297 0.469909L17.5297 6.46991Z" fill="black"/>
</svg>
