<svg width="17" height="19" viewBox="0 0 17 19" fill="none" xmlns="http://www.w3.org/2000/svg">
<path d="M11.2495 0.12502C10.5103 0.123042 9.77802 0.267575 9.09497 0.550268C8.41193 0.832961 7.79167 1.24821 7.27005 1.77202L0.377547 8.66602C0.166103 8.87707 0.0471568 9.16346 0.0468755 9.46221C0.0465942 9.76095 0.165001 10.0476 0.376047 10.259C0.587093 10.4705 0.873491 10.5894 1.17224 10.5897C1.47098 10.59 1.7576 10.4716 1.96905 10.2605L8.86455 3.36352C9.50601 2.7738 10.3505 2.45477 11.2217 2.47306C12.0928 2.49136 12.9232 2.84558 13.5394 3.46171C14.1555 4.07784 14.5097 4.90823 14.528 5.77938C14.5463 6.65053 14.2273 7.49506 13.6375 8.13652L5.68305 16.091C5.46978 16.2897 5.18771 16.3979 4.89626 16.3928C4.60481 16.3876 4.32673 16.2696 4.12061 16.0635C3.91449 15.8573 3.79643 15.5793 3.79128 15.2878C3.78614 14.9964 3.89433 14.7143 4.09305 14.501L12.0475 6.54652C12.259 6.33528 12.3779 6.04869 12.378 5.7498C12.3781 5.45091 12.2595 5.16421 12.0483 4.95277C11.8371 4.74133 11.5505 4.62246 11.2516 4.62232C10.9527 4.62218 10.666 4.74078 10.4545 4.95202L2.49855 12.9095C1.90883 13.551 1.58979 14.3955 1.60809 15.2667C1.62639 16.1378 1.98061 16.9682 2.59674 17.5843C3.21287 18.2005 4.04326 18.5547 4.91441 18.573C5.78556 18.5913 6.63009 18.2722 7.27155 17.6825L15.226 9.72802C15.7502 9.2069 16.1658 8.58698 16.4488 7.90415C16.7317 7.22133 16.8765 6.48915 16.8745 5.75002C16.873 4.25866 16.2798 2.82885 15.2253 1.7743C14.1707 0.719751 12.7409 0.126608 11.2495 0.12502Z" fill="black"/>
</svg>
