<svg width="18" height="18" viewBox="0 0 18 18" fill="none" xmlns="http://www.w3.org/2000/svg">
<path d="M3.56323 12.9374C3.71242 12.9374 3.85549 12.9966 3.96098 13.1021C4.06647 13.2076 4.12573 13.3507 4.12573 13.4999V15.1874C4.12573 15.2909 4.20973 15.3749 4.31323 15.3749H13.6882C13.738 15.3749 13.7857 15.3551 13.8208 15.32C13.856 15.2848 13.8757 15.2371 13.8757 15.1874V13.4999C13.8757 13.3507 13.935 13.2076 14.0405 13.1021C14.146 12.9966 14.289 12.9374 14.4382 12.9374C14.5874 12.9374 14.7305 12.9966 14.836 13.1021C14.9415 13.2076 15.0007 13.3507 15.0007 13.4999V15.1874C15.0007 15.5355 14.8625 15.8693 14.6163 16.1155C14.3702 16.3616 14.0363 16.4999 13.6882 16.4999H4.31323C3.96514 16.4999 3.6313 16.3616 3.38515 16.1155C3.13901 15.8693 3.00073 15.5355 3.00073 15.1874V13.4999C3.00073 13.3507 3.06 13.2076 3.16548 13.1021C3.27097 12.9966 3.41405 12.9374 3.56323 12.9374Z" fill="black"/>
<path d="M3.91555 7.4775C3.96772 7.42525 4.02968 7.3838 4.09789 7.35552C4.1661 7.32724 4.23921 7.31269 4.31305 7.31269C4.38689 7.31269 4.46 7.32724 4.52821 7.35552C4.59641 7.3838 4.65837 7.42525 4.71055 7.4775L8.43805 11.2043V2.0625C8.43805 1.91332 8.49731 1.77024 8.6028 1.66475C8.70829 1.55926 8.85136 1.5 9.00055 1.5C9.14973 1.5 9.29281 1.55926 9.3983 1.66475C9.50379 1.77024 9.56305 1.91332 9.56305 2.0625V11.2043L13.2905 7.4775C13.396 7.37208 13.539 7.31285 13.688 7.31285C13.8371 7.31285 13.9801 7.37208 14.0855 7.4775C14.191 7.58292 14.2502 7.72591 14.2502 7.875C14.2502 8.02409 14.191 8.16708 14.0855 8.2725L9.39805 12.96C9.34587 13.0123 9.28391 13.0537 9.21571 13.082C9.1475 13.1103 9.07439 13.1248 9.00055 13.1248C8.92671 13.1248 8.8536 13.1103 8.78539 13.082C8.71718 13.0537 8.65522 13.0123 8.60305 12.96L3.91555 8.2725C3.8633 8.22033 3.82185 8.15837 3.79357 8.09016C3.76529 8.02195 3.75073 7.94884 3.75073 7.875C3.75073 7.80116 3.76529 7.72805 3.79357 7.65984C3.82185 7.59164 3.8633 7.52968 3.91555 7.4775Z" fill="black"/>
</svg>
