<svg width="13" height="13" viewBox="0 0 13 13" fill="none" xmlns="http://www.w3.org/2000/svg">
<path d="M5.875 9.625H7.125V5.875H5.875V9.625ZM6.5 4.625C6.67708 4.625 6.82563 4.565 6.94563 4.445C7.06563 4.325 7.12542 4.17667 7.125 4C7.125 3.82292 7.065 3.67438 6.945 3.55438C6.825 3.43438 6.67667 3.37458 6.5 3.375C6.32292 3.375 6.17437 3.435 6.05437 3.555C5.93437 3.675 5.87458 3.82333 5.875 4C5.875 4.17708 5.935 4.32563 6.055 4.44563C6.175 4.56563 6.32333 4.62542 6.5 4.625ZM6.5 12.75C5.63542 12.75 4.82292 12.5858 4.0625 12.2575C3.30208 11.9292 2.64062 11.484 2.07813 10.9219C1.51563 10.3594 1.07042 9.69792 0.7425 8.9375C0.414583 8.17708 0.250417 7.36458 0.25 6.5C0.25 5.63542 0.414167 4.82292 0.7425 4.0625C1.07083 3.30208 1.51604 2.64062 2.07813 2.07813C2.64062 1.51563 3.30208 1.07042 4.0625 0.7425C4.82292 0.414583 5.63542 0.250417 6.5 0.25C7.36458 0.25 8.17708 0.414167 8.9375 0.7425C9.69792 1.07083 10.3594 1.51604 10.9219 2.07813C11.4844 2.64062 11.9298 3.30208 12.2581 4.0625C12.5865 4.82292 12.7504 5.63542 12.75 6.5C12.75 7.36458 12.5858 8.17708 12.2575 8.9375C11.9292 9.69792 11.484 10.3594 10.9219 10.9219C10.3594 11.4844 9.69792 11.9298 8.9375 12.2581C8.17708 12.5865 7.36458 12.7504 6.5 12.75ZM6.5 11.5C7.89583 11.5 9.07812 11.0156 10.0469 10.0469C11.0156 9.07812 11.5 7.89583 11.5 6.5C11.5 5.10417 11.0156 3.92187 10.0469 2.95312C9.07812 1.98437 7.89583 1.5 6.5 1.5C5.10417 1.5 3.92187 1.98437 2.95312 2.95312C1.98437 3.92187 1.5 5.10417 1.5 6.5C1.5 7.89583 1.98437 9.07812 2.95312 10.0469C3.92187 11.0156 5.10417 11.5 6.5 11.5Z" fill="#35797B"/>
</svg>
