<svg width="10" height="21" viewBox="0 0 10 21" fill="none" xmlns="http://www.w3.org/2000/svg">
<path d="M-1.42999e-06 9.60596L-1.21829e-06 5.60596C-1.14508e-06 4.22262 0.487666 3.04329 1.463 2.06796C2.43833 1.09262 3.61733 0.605291 5 0.605958C6.38333 0.605958 7.56267 1.09362 8.538 2.06896C9.51333 3.04429 10.0007 4.22329 10 5.60596L10 9.60596L8 9.60596L8 5.60596C8 4.77262 7.70833 4.06429 7.125 3.48096C6.54167 2.89762 5.83333 2.60596 5 2.60596C4.16667 2.60596 3.45833 2.89762 2.875 3.48096C2.29167 4.06429 2 4.77262 2 5.60596L2 9.60596L-1.42999e-06 9.60596ZM4 6.60596L6 6.60596L6 14.606L4 14.606L4 6.60596ZM-1.53584e-06 11.606L2 11.606L2 15.606C2 16.4393 2.29167 17.1476 2.875 17.731C3.45833 18.3143 4.16667 18.606 5 18.606C5.83333 18.606 6.54167 18.3143 7.125 17.731C7.70833 17.1476 8 16.4393 8 15.606L8 11.606L10 11.606L10 15.606C10 16.9893 9.51233 18.1686 8.537 19.144C7.56166 20.1193 6.38267 20.6066 5 20.606C3.61667 20.606 2.43733 20.1183 1.462 19.143C0.486665 18.1676 -0.000668439 16.9886 -1.74753e-06 15.606L-1.53584e-06 11.606Z" fill="black"/>
</svg>
