<svg width="25" height="24" viewBox="0 0 25 24" fill="none" xmlns="http://www.w3.org/2000/svg">
<g clip-path="url(#clip0_753_10189)">
<path d="M12.667 0C9.48512 0 6.43074 1.26506 4.18262 3.51469C1.93217 5.76521 0.667616 8.81734 0.666992 12C0.666992 15.1813 1.93262 18.2357 4.18262 20.4853C6.43074 22.7349 9.48512 24 12.667 24C15.8489 24 18.9032 22.7349 21.1514 20.4853C23.4014 18.2357 24.667 15.1813 24.667 12C24.667 8.81869 23.4014 5.76431 21.1514 3.51469C18.9032 1.26506 15.8489 0 12.667 0Z" fill="url(#paint0_linear_753_10189)"/>
<path d="M6.09884 11.8733C9.59759 10.3493 11.9301 9.34448 13.0963 8.85904C16.4301 7.47285 17.122 7.2321 17.5738 7.22395C17.6732 7.22235 17.8945 7.24692 18.0388 7.36364C18.1588 7.46207 18.1926 7.5952 18.2095 7.68867C18.2245 7.78204 18.2451 7.99485 18.2282 8.16098C18.0482 10.0585 17.2663 14.6631 16.8688 16.7884C16.702 17.6877 16.3701 17.9892 16.0495 18.0186C15.352 18.0827 14.8232 17.5581 14.1482 17.1158C13.0926 16.4234 12.4963 15.9925 11.4707 15.3169C10.2857 14.5362 11.0545 14.107 11.7295 13.4057C11.9057 13.2222 14.977 10.4294 15.0351 10.176C15.0426 10.1444 15.0501 10.0262 14.9788 9.96398C14.9095 9.90154 14.8063 9.92292 14.7313 9.93979C14.6245 9.96379 12.9388 11.079 9.66884 13.2854C9.19071 13.6142 8.75759 13.7745 8.36759 13.7661C7.94009 13.7569 7.11509 13.5239 6.50196 13.3247C5.75196 13.0804 5.15384 12.9512 5.20634 12.5363C5.23259 12.3203 5.53071 12.0992 6.09884 11.8733Z" fill="white"/>
</g>
<defs>
<linearGradient id="paint0_linear_753_10189" x1="1200.67" y1="0" x2="1200.67" y2="2400" gradientUnits="userSpaceOnUse">
<stop stop-color="#2AABEE"/>
<stop offset="1" stop-color="#229ED9"/>
</linearGradient>
<clipPath id="clip0_753_10189">
<rect width="24" height="24" fill="white" transform="translate(0.666992)"/>
</clipPath>
</defs>
</svg>
