<svg width="1270" height="134" viewBox="0 0 1270 134" fill="none" xmlns="http://www.w3.org/2000/svg">
<path d="M51.8875 0.259766C54.3276 0.259766 57.4854 0.320548 61.3608 0.442114C65.3797 0.563686 69.4705 0.746038 73.6329 0.989169C77.7954 1.11073 81.312 1.41465 84.1827 1.90092L82.0297 16.6713H61.1455C55.1171 16.6713 50.8828 17.7046 48.4427 19.7713C46.0026 21.8379 44.7826 25.3026 44.7826 30.1653V131.37H18.7312V27.43C18.7312 21.7163 19.8077 16.8537 21.9607 12.842C24.1137 8.83024 27.6303 5.73028 32.5105 3.54208C37.3906 1.35387 43.8496 0.259766 51.8875 0.259766ZM76.2166 41.8357V57.1531H0V42.7474L19.5924 41.8357H76.2166Z" fill="#F2F9FC"/>
<path d="M140.962 39.6475C153.88 39.6475 164.142 41.1671 171.75 44.2062C179.5 47.2454 185.027 52.2297 188.328 59.159C191.773 66.0883 193.495 75.2666 193.495 86.6939C193.495 98.1212 191.773 107.3 188.328 114.229C185.027 121.037 179.5 126.021 171.75 129.182C164.142 132.221 153.88 133.74 140.962 133.74C128.331 133.74 118.14 132.221 110.389 129.182C102.782 126.021 97.2555 121.037 93.8107 114.229C90.3659 107.3 88.6434 98.1212 88.6434 86.6939C88.6434 75.2666 90.3659 66.0883 93.8107 59.159C97.2555 52.2297 102.782 47.2454 110.389 44.2062C118.14 41.1671 128.331 39.6475 140.962 39.6475ZM140.962 56.4237C134.646 56.4237 129.622 57.3355 125.891 59.159C122.302 60.8609 119.719 63.9001 118.14 68.2765C116.561 72.6529 115.771 78.7921 115.771 86.6939C115.771 94.5958 116.561 100.735 118.14 105.111C119.719 109.488 122.302 112.527 125.891 114.229C129.622 115.931 134.646 116.782 140.962 116.782C147.421 116.782 152.516 115.931 156.248 114.229C159.98 112.527 162.563 109.488 163.999 105.111C165.578 100.735 166.367 94.5958 166.367 86.6939C166.367 78.7921 165.578 72.6529 163.999 68.2765C162.563 63.9001 159.98 60.8609 156.248 59.159C152.516 57.3355 147.421 56.4237 140.962 56.4237Z" fill="#F2F9FC"/>
<path d="M238.294 41.8357L241.739 59.3413L244.108 61.8942V131.37H218.056V41.8357H238.294ZM289.967 39.6475L287.383 60.0707H279.848C274.25 60.0707 268.58 60.8609 262.839 62.4413C257.097 64.0217 249.921 66.3922 241.309 69.553L239.586 56.6061C247.05 51.2571 254.657 47.1239 262.408 44.2062C270.159 41.1671 277.623 39.6475 284.799 39.6475H289.967Z" fill="#F2F9FC"/>
<path d="M469.316 41.8357L441.327 125.535C440.753 127.237 439.604 128.635 437.882 129.729C436.159 130.823 434.15 131.37 431.853 131.37H410.969C408.673 131.37 406.591 130.762 404.726 129.546C402.86 128.331 401.783 126.689 401.496 124.623L387.501 69.7353C386.927 67.304 386.425 64.8726 385.994 62.4413C385.707 60.0099 385.277 57.5786 384.702 55.1473H381.904C381.473 57.5786 380.971 60.0099 380.396 62.4413C379.966 64.8726 379.464 67.304 378.889 69.7353L365.11 124.623C364.68 126.689 363.531 128.331 361.665 129.546C359.943 130.762 357.862 131.37 355.422 131.37H334.753C332.456 131.37 330.447 130.823 328.724 129.729C327.002 128.635 325.925 127.237 325.495 125.535L297.29 41.8357H323.772L341.427 103.288C342.001 105.598 342.504 107.968 342.934 110.399C343.508 112.709 344.011 115.019 344.441 117.329H347.025C347.742 115.019 348.317 112.709 348.747 110.399C349.321 107.968 349.896 105.598 350.47 103.288L364.464 48.5827C364.895 46.6376 365.9 45.0572 367.478 43.8415C369.201 42.5043 371.354 41.8357 373.937 41.8357H392.884C395.18 41.8357 397.19 42.5043 398.912 43.8415C400.635 45.0572 401.711 46.6984 402.142 48.765L416.136 103.288C416.567 105.598 417.069 107.907 417.644 110.217C418.361 112.527 418.935 114.897 419.366 117.329H421.95C422.524 114.897 423.026 112.588 423.457 110.399C423.887 108.09 424.461 105.719 425.179 103.288L442.834 41.8357H469.316Z" fill="#F2F9FC"/>
<path d="M540.572 39.6475C549.041 39.6475 556.145 40.62 561.887 42.5651C567.772 44.3886 572.221 47.5493 575.235 52.0473C578.25 56.5453 579.757 62.7452 579.757 70.6471V131.37H559.088L555.428 112.041L553.49 109.488V70.4647C553.49 65.7236 552.198 62.3197 549.615 60.2531C547.031 58.0649 542.079 56.9708 534.759 56.9708C529.305 56.9708 522.415 57.1531 514.09 57.5178C505.909 57.8825 497.655 58.3688 489.33 58.9766L486.962 43.8415C491.986 42.9906 497.655 42.2612 503.971 41.6533C510.286 41.0455 516.674 40.5592 523.133 40.1945C529.592 39.8298 535.405 39.6475 540.572 39.6475ZM568.561 76.2999L568.346 89.9762H519.903C515.597 90.0978 512.511 91.0703 510.645 92.8938C508.779 94.7173 507.846 97.2095 507.846 100.37V105.294C507.846 108.941 508.995 111.737 511.291 113.682C513.588 115.505 517.176 116.417 522.056 116.417C525.932 116.417 530.238 115.748 534.974 114.411C539.711 113.074 544.376 111.129 548.969 108.576C553.705 106.023 557.94 102.984 561.672 99.4584V110.947C560.236 112.77 558.155 114.958 555.428 117.511C552.701 119.942 549.328 122.374 545.309 124.805C541.433 127.237 536.912 129.242 531.745 130.823C526.721 132.403 521.123 133.193 514.951 133.193C508.636 133.193 502.966 132.282 497.942 130.458C492.919 128.513 488.971 125.717 486.101 122.07C483.23 118.301 481.795 113.682 481.795 108.211V98.729C481.795 91.6782 484.522 86.2076 489.976 82.3175C495.574 78.3058 503.181 76.2999 512.798 76.2999H568.561Z" fill="#F2F9FC"/>
<path d="M628.317 41.8357L631.762 59.3413L634.13 61.8942V131.37H608.079V41.8357H628.317ZM679.99 39.6475L677.406 60.0707H669.87C664.273 60.0707 658.603 60.8609 652.862 62.4413C647.12 64.0217 639.943 66.3922 631.331 69.553L629.609 56.6061C637.073 51.2571 644.68 47.1239 652.431 44.2062C660.182 41.1671 667.646 39.6475 674.822 39.6475H679.99Z" fill="#F2F9FC"/>
<path d="M731.916 39.6475C739.092 39.6475 746.126 40.4984 753.015 42.2004C759.905 43.7808 766.149 46.4552 771.746 50.2238L770.024 61.3472C764.426 60.01 759.402 58.8551 754.953 57.8825C750.503 56.91 745.551 56.4237 740.097 56.4237C734.93 56.4237 730.767 57.2139 727.61 58.7943C724.595 60.2531 722.299 63.1099 720.72 67.3648C719.285 71.6196 718.567 77.8195 718.567 85.9645C718.567 93.7448 719.285 99.7624 720.72 104.017C722.155 108.15 724.38 111.068 727.394 112.77C730.409 114.35 734.356 115.141 739.236 115.141C743.111 115.141 746.556 114.776 749.57 114.046C752.585 113.196 755.671 111.98 758.828 110.399C761.986 108.698 765.646 106.57 769.809 104.017L771.962 116.417C767.082 121.158 761.053 125.231 753.876 128.635C746.843 131.917 738.662 133.558 729.332 133.558C715.84 133.558 706.223 129.546 700.482 121.523C694.74 113.378 691.87 101.586 691.87 86.1469C691.87 74.3549 693.305 65.1158 696.176 58.4296C699.19 51.6218 703.64 46.8199 709.524 44.0239C715.553 41.1063 723.017 39.6475 731.916 39.6475ZM793.061 3.72442V131.37H772.608L769.809 115.323L767.01 113.499V53.6885L768.302 51.1356C767.727 47.6101 767.369 44.0847 767.225 40.5592C767.082 36.9122 767.01 33.2044 767.01 29.4359V3.72442H793.061Z" fill="#F2F9FC"/>
<path d="M917.433 39.6475C930.351 39.6475 940.614 41.1671 948.221 44.2062C955.972 47.2454 961.498 52.2297 964.799 59.159C968.244 66.0883 969.966 75.2666 969.966 86.6939C969.966 98.1212 968.244 107.3 964.799 114.229C961.498 121.037 955.972 126.021 948.221 129.182C940.614 132.221 930.351 133.74 917.433 133.74C904.802 133.74 894.611 132.221 886.86 129.182C879.253 126.021 873.727 121.037 870.282 114.229C866.837 107.3 865.115 98.1212 865.115 86.6939C865.115 75.2666 866.837 66.0883 870.282 59.159C873.727 52.2297 879.253 47.2454 886.86 44.2062C894.611 41.1671 904.802 39.6475 917.433 39.6475ZM917.433 56.4237C911.117 56.4237 906.094 57.3355 902.362 59.159C898.773 60.8609 896.19 63.9001 894.611 68.2765C893.032 72.6529 892.243 78.7921 892.243 86.6939C892.243 94.5958 893.032 100.735 894.611 105.111C896.19 109.488 898.773 112.527 902.362 114.229C906.094 115.931 911.117 116.782 917.433 116.782C923.892 116.782 928.987 115.931 932.719 114.229C936.451 112.527 939.035 109.488 940.47 105.111C942.049 100.735 942.838 94.5958 942.838 86.6939C942.838 78.7921 942.049 72.6529 940.47 68.2765C939.035 63.9001 936.451 60.8609 932.719 59.159C928.987 57.3355 923.892 56.4237 917.433 56.4237Z" fill="#F2F9FC"/>
<path d="M1014.77 41.8357L1018.21 59.3413L1020.58 61.8942V131.37H994.527V41.8357H1014.77ZM1066.44 39.6475L1063.85 60.0707H1056.32C1050.72 60.0707 1045.05 60.8609 1039.31 62.4413C1033.57 64.0217 1026.39 66.3922 1017.78 69.553L1016.06 56.6061C1023.52 51.2571 1031.13 47.1239 1038.88 44.2062C1046.63 41.1671 1054.09 39.6475 1061.27 39.6475H1066.44Z" fill="#F2F9FC"/>
<path d="M1118.97 16.3066V104.382C1118.97 108.15 1119.91 110.825 1121.77 112.405C1123.78 113.986 1127.16 114.776 1131.89 114.776H1146.53L1149.33 130.276C1146.89 130.884 1143.95 131.431 1140.5 131.917C1137.06 132.403 1133.69 132.707 1130.39 132.829C1127.08 133.072 1124.29 133.193 1121.99 133.193C1112.8 133.193 1105.63 131.127 1100.46 126.993C1095.44 122.739 1092.92 116.66 1092.92 108.758V16.3066H1118.97ZM1150.41 41.8357V57.1531H1074.19V42.7474L1094.86 41.8357H1150.41Z" fill="#F2F9FC"/>
<path d="M1217.47 39.6475C1230.38 39.6475 1240.65 41.1671 1248.25 44.2062C1256.01 47.2454 1261.53 52.2297 1264.83 59.159C1268.28 66.0883 1270 75.2666 1270 86.6939C1270 98.1212 1268.28 107.3 1264.83 114.229C1261.53 121.037 1256.01 126.021 1248.25 129.182C1240.65 132.221 1230.38 133.74 1217.47 133.74C1204.84 133.74 1194.64 132.221 1186.89 129.182C1179.29 126.021 1173.76 121.037 1170.32 114.229C1166.87 107.3 1165.15 98.1212 1165.15 86.6939C1165.15 75.2666 1166.87 66.0883 1170.32 59.159C1173.76 52.2297 1179.29 47.2454 1186.89 44.2062C1194.64 41.1671 1204.84 39.6475 1217.47 39.6475ZM1217.47 56.4237C1211.15 56.4237 1206.13 57.3355 1202.4 59.159C1198.81 60.8609 1196.22 63.9001 1194.64 68.2765C1193.07 72.6529 1192.28 78.7921 1192.28 86.6939C1192.28 94.5958 1193.07 100.735 1194.64 105.111C1196.22 109.488 1198.81 112.527 1202.4 114.229C1206.13 115.931 1211.15 116.782 1217.47 116.782C1223.93 116.782 1229.02 115.931 1232.75 114.229C1236.48 112.527 1239.07 109.488 1240.5 105.111C1242.08 100.735 1242.87 94.5958 1242.87 86.6939C1242.87 78.7921 1242.08 72.6529 1240.5 68.2765C1239.07 63.9001 1236.48 60.8609 1232.75 59.159C1229.02 57.3355 1223.93 56.4237 1217.47 56.4237Z" fill="#F2F9FC"/>
</svg>
