<svg width="95" height="37" viewBox="0 0 95 37" fill="none" xmlns="http://www.w3.org/2000/svg">
<path d="M82.6324 0.206139C80.6874 0.887623 81.2582 0.355213 72.2732 9.93859C70.2437 12.1108 68.2987 14.1766 67.9393 14.5386C67.601 14.9007 65.9731 16.6044 64.3453 18.3507C60.7935 22.1201 60.0536 22.5887 57.6858 22.61C55.5082 22.61 54.43 22.1414 52.1256 20.1822C51.0686 19.2877 49.8847 18.3294 49.5253 18.0312C49.1659 17.7331 47.3266 16.221 45.445 14.6451C41.6396 11.4932 40.7094 11.0034 38.5953 11.0247C36.0795 11.046 35.8469 11.1951 30.2022 17.2007C24.8746 22.8868 24.5364 23.2063 23.2256 23.6748C21.8092 24.1646 20.287 24.1859 18.8917 23.7174C18.2152 23.4831 16.3547 22.2266 13.6064 20.1822C9.12445 16.8173 8.19424 16.3275 6.2281 16.3275C2.80323 16.3275 -0.219962 19.5433 0.0125914 22.9294C0.266286 26.4433 3.14149 29.1693 6.62979 29.2118C8.38451 29.2118 9.6107 28.7007 11.2174 27.2526C12.9087 25.7405 13.7755 25.3785 15.7205 25.3785C18.2152 25.3998 18.786 25.7192 24.6421 30.7026C28.828 34.2591 31.1113 36.048 31.9992 36.4739C33.3523 37.1341 35.7835 37.1767 37.0731 36.5804C37.8131 36.2397 43.5846 30.447 47.3055 26.2942C49.3562 24.0155 52.4216 23.334 55.0431 24.6118C55.7408 24.9526 57.0938 25.8896 58.024 26.6776C61.005 29.2331 66.6074 33.8758 67.4319 34.4721C67.8547 34.8128 68.8272 35.2387 69.5883 35.4304C70.7933 35.7498 71.1316 35.7711 72.3155 35.5156C73.0554 35.3665 73.9434 35.0684 74.2816 34.8554C74.9793 34.4295 77.1568 32.1933 82.8438 26.1239C84.8734 23.9516 87.4949 21.1831 88.6576 19.9479C94.8732 13.4312 95 13.2608 95 10.471C95 8.10711 94.3869 7.10617 91.0255 3.86912C89.2707 2.1867 87.8331 0.994106 87.1355 0.653362C85.8459 0.0144691 83.774 -0.198494 82.6324 0.206139Z" fill="white"/>
</svg>
