<svg width="49" height="19" viewBox="0 0 49 19" fill="none" xmlns="http://www.w3.org/2000/svg">
<path d="M42.6209 0.105856C41.6177 0.455807 41.9121 0.182407 37.2778 5.1036C36.2309 6.21907 35.2277 7.27987 35.0424 7.46578C34.8679 7.65169 34.0282 8.52657 33.1886 9.42332C31.3567 11.359 30.975 11.5996 29.7537 11.6105C28.6306 11.6105 28.0744 11.3699 26.8859 10.3638C26.3406 9.9045 25.73 9.41238 25.5446 9.25928C25.3592 9.10618 24.4106 8.32972 23.4401 7.52046C21.4773 5.90193 20.9975 5.6504 19.907 5.66134C18.6094 5.67227 18.4895 5.74883 15.578 8.83278C12.8301 11.7527 12.6556 11.9167 11.9795 12.1573C11.2489 12.4088 10.4638 12.4198 9.74413 12.1792C9.39519 12.0589 8.4356 11.4137 7.01803 10.3638C4.70629 8.63593 4.2265 8.3844 3.21239 8.3844C1.44588 8.3844 -0.113454 10.0357 0.0064945 11.7746C0.137347 13.579 1.62035 14.9788 3.41957 15.0007C4.32464 15.0007 4.9571 14.7382 5.78583 13.9946C6.65818 13.2181 7.10526 13.0322 8.10847 13.0322C9.39519 13.0431 9.68961 13.2072 12.7101 15.7662C14.8692 17.5925 16.0469 18.5111 16.5049 18.7299C17.2027 19.0689 18.4568 19.0907 19.1219 18.7845C19.5036 18.6096 22.4805 15.635 24.3997 13.5024C25.4574 12.3323 27.0385 11.9823 28.3907 12.6385C28.7505 12.8135 29.4484 13.2947 29.9282 13.6993C31.4657 15.0116 34.3554 17.3957 34.7807 17.7019C34.9987 17.8768 35.5003 18.0956 35.8929 18.194C36.5145 18.358 36.6889 18.369 37.2996 18.2377C37.6812 18.1612 38.1392 18.0081 38.3137 17.8987C38.6735 17.68 39.7967 16.5317 42.73 13.415C43.7768 12.2995 45.1289 10.8778 45.7287 10.2435C48.9346 6.89711 49 6.80962 49 5.377C49 4.16311 48.6838 3.64912 46.95 1.98685C46.0449 1.1229 45.3034 0.510487 44.9436 0.33551C44.2784 0.00743103 43.2098 -0.101929 42.6209 0.105856Z" fill="black"/>
</svg>
