<svg width="25" height="24" viewBox="0 0 25 24" fill="none" xmlns="http://www.w3.org/2000/svg">
<g clip-path="url(#clip0_753_10184)">
<path d="M0.843861 11.8563C0.843303 13.8728 1.37019 15.8417 2.37205 17.5771L0.748047 23.5066L6.81614 21.9156C8.49449 22.8292 10.375 23.308 12.2859 23.3081H12.2909C18.5993 23.3081 23.7345 18.1748 23.7372 11.8653C23.7384 8.80792 22.5488 5.93295 20.3875 3.76997C18.2266 1.60718 15.3526 0.415458 12.2905 0.414062C5.98135 0.414062 0.846559 5.54709 0.843954 11.8563" fill="url(#paint0_linear_753_10184)"/>
<path d="M0.435472 11.8527C0.434821 13.9417 0.980589 15.981 2.01817 17.7786L0.335938 23.9207L6.62161 22.2726C8.35352 23.2168 10.3035 23.7147 12.2877 23.7154H12.2928C18.8275 23.7154 24.1471 18.3975 24.1499 11.8621C24.151 8.69488 22.9186 5.71656 20.6801 3.47609C18.4413 1.23591 15.4646 0.00130233 12.2928 0C5.75696 0 0.438077 5.31721 0.435472 11.8527ZM4.17873 17.469L3.94403 17.0965C2.95743 15.5277 2.43668 13.7149 2.43743 11.8534C2.43957 6.4213 6.8604 2.00186 12.2965 2.00186C14.9291 2.00298 17.4031 3.02921 19.2639 4.89116C21.1247 6.7533 22.1486 9.22865 22.1479 11.8614C22.1455 17.2935 17.7246 21.7135 12.2928 21.7135H12.2889C10.5202 21.7126 8.78561 21.2376 7.27287 20.34L6.91287 20.1265L3.18282 21.1045L4.17873 17.4689V17.469Z" fill="url(#paint1_linear_753_10184)"/>
<path d="M9.32897 6.89746C9.10702 6.40416 8.87344 6.39421 8.66237 6.38556C8.48953 6.37811 8.29195 6.37867 8.09455 6.37867C7.89697 6.37867 7.57595 6.453 7.3046 6.74928C7.03297 7.04583 6.26758 7.76249 6.26758 9.22007C6.26758 10.6777 7.32925 12.0864 7.47725 12.2843C7.62544 12.4817 9.52683 15.5686 12.5382 16.7562C15.0409 17.743 15.5502 17.5468 16.0933 17.4973C16.6366 17.448 17.8463 16.7808 18.0931 16.089C18.34 15.3973 18.34 14.8043 18.266 14.6804C18.192 14.557 17.9944 14.4829 17.6981 14.3348C17.4017 14.1866 15.9452 13.4698 15.6736 13.371C15.402 13.2722 15.2045 13.2229 15.0069 13.5195C14.8093 13.8157 14.242 14.4829 14.0691 14.6804C13.8963 14.8785 13.7234 14.9031 13.4272 14.755C13.1307 14.6063 12.1766 14.2938 11.0446 13.2846C10.1639 12.4993 9.56925 11.5296 9.39642 11.2329C9.22358 10.9367 9.3779 10.7762 9.52646 10.6285C9.65958 10.4958 9.82283 10.2826 9.97111 10.1096C10.1188 9.93663 10.1681 9.81318 10.2669 9.6156C10.3658 9.41783 10.3163 9.24481 10.2424 9.09663C10.1681 8.94844 9.59242 7.48323 9.32897 6.89746Z" fill="white"/>
</g>
<defs>
<linearGradient id="paint0_linear_753_10184" x1="1150.2" y1="2309.67" x2="1150.2" y2="0.414062" gradientUnits="userSpaceOnUse">
<stop stop-color="#1FAF38"/>
<stop offset="1" stop-color="#60D669"/>
</linearGradient>
<linearGradient id="paint1_linear_753_10184" x1="1191.03" y1="2392.07" x2="1191.03" y2="0" gradientUnits="userSpaceOnUse">
<stop stop-color="#F9F9F9"/>
<stop offset="1" stop-color="white"/>
</linearGradient>
<clipPath id="clip0_753_10184">
<rect width="23.82" height="24" fill="white" transform="translate(0.333008)"/>
</clipPath>
</defs>
</svg>
